<?xml version="1.0" standalone="no"?>
<!DOCTYPE svg PUBLIC "-//W3C//DTD SVG 20010904//EN"
 "http://www.w3.org/TR/2001/REC-SVG-20010904/DTD/svg10.dtd">
<svg version="1.0" xmlns="http://www.w3.org/2000/svg"
 width="223.000000pt" height="223.000000pt" viewBox="0 0 223.000000 223.000000"
 preserveAspectRatio="xMidYMid meet">
<metadata>
Created by potrace 1.11, written by Peter Selinger 2001-2013
</metadata>
<g transform="translate(0.000000,223.000000) scale(0.100000,-0.100000)"
fill="#000000" stroke="none">
<path d="M1123 2090 c-97 -20 -187 -94 -231 -188 l-27 -57 -3 -452 -3 -453
-184 0 c-222 0 -269 -12 -335 -87 -49 -56 -64 -107 -57 -195 6 -66 5 -67 -22
-76 -41 -14 -99 -69 -124 -116 -29 -55 -30 -164 -3 -219 24 -49 67 -92 120
-120 l41 -22 815 0 815 0 41 22 c54 29 117 101 132 151 36 119 -25 255 -134
300 l-29 12 0 93 c0 88 -2 94 -33 139 -71 102 -119 118 -358 118 l-184 0 0
245 0 245 165 0 165 0 0 70 0 69 118 3 117 3 -39 24 c-42 27 -43 22 19 66 18
12 6 14 -96 14 l-117 1 -4 88 c-7 141 -66 235 -184 293 -63 31 -71 33 -202 35
-76 2 -156 -1 -179 -6z m313 -179 c69 -39 84 -78 84 -215 l0 -116 -165 0 -165
0 0 -320 0 -320 -80 0 -80 0 0 436 c0 382 2 440 16 470 34 71 96 94 244 91 89
-2 111 -6 146 -26z m280 -1151 c35 -14 53 -38 54 -73 0 -41 -15 -63 -51 -76
-35 -12 -1174 -14 -1219 -2 -36 10 -61 64 -48 103 20 57 17 57 655 58 379 0
591 -4 609 -10z m199 -355 c40 -39 32 -96 -16 -120 -24 -13 -142 -15 -796 -15
-689 0 -771 2 -791 16 -45 31 -48 87 -7 127 15 16 84 17 801 17 l785 0 24 -25z"/>
<path d="M1310 1820 c-43 -43 -11 -120 48 -120 35 0 72 37 72 71 0 59 -78 91
-120 49z"/>
</g>
</svg>
